<?xml version="1.0" encoding="UTF-8" standalone="no"?>
<svg
   xmlns:dc="http://purl.org/dc/elements/1.1/"
   xmlns:cc="http://creativecommons.org/ns#"
   xmlns:rdf="http://www.w3.org/1999/02/22-rdf-syntax-ns#"
   xmlns:svg="http://www.w3.org/2000/svg"
   xmlns="http://www.w3.org/2000/svg"
   xmlns:sodipodi="http://sodipodi.sourceforge.net/DTD/sodipodi-0.dtd"
   xmlns:inkscape="http://www.inkscape.org/namespaces/inkscape"
   width="175.52769"
   zoomAndPan="magnify"
   viewBox="0 0 131.64577 53.310006"
   height="71.080009"
   preserveAspectRatio="xMidYMid meet"
   version="1.0"
   id="svg255"
   sodipodi:docname="DiGo_ShorthandLogo.svg"
   inkscape:version="1.0.2 (e86c870879, 2021-01-15)">
  <metadata
     id="metadata259">
    <rdf:RDF>
      <cc:Work
         rdf:about="">
        <dc:format>image/svg+xml</dc:format>
        <dc:type
           rdf:resource="http://purl.org/dc/dcmitype/StillImage" />
        <dc:title></dc:title>
      </cc:Work>
    </rdf:RDF>
  </metadata>
  <sodipodi:namedview
     pagecolor="#ffffff"
     bordercolor="#666666"
     borderopacity="1"
     objecttolerance="10"
     gridtolerance="10"
     guidetolerance="10"
     inkscape:pageopacity="0"
     inkscape:pageshadow="2"
     inkscape:window-width="1920"
     inkscape:window-height="1005"
     id="namedview257"
     showgrid="false"
     inkscape:pagecheckerboard="true"
     fit-margin-top="5"
     fit-margin-left="5"
     fit-margin-right="5"
     fit-margin-bottom="5"
     lock-margins="true"
     inkscape:zoom="1.624"
     inkscape:cx="248.36955"
     inkscape:cy="248.64391"
     inkscape:window-x="0"
     inkscape:window-y="0"
     inkscape:window-maximized="1"
     inkscape:current-layer="svg255" />
  <defs
     id="defs209">
    <g
       id="g204" />
    <clipPath
       id="id1">
      <path
         d="m 174,149.55078 h 19.15625 v 34.5 H 174 Z m 0,0"
         clip-rule="nonzero"
         id="path206" />
    </clipPath>
  </defs>
  <g
     clip-path="url(#id1)"
     id="g213"
     transform="translate(-135.90893,-144.19719)">
    <path
       fill="#081974"
       d="m 192.54687,165.46875 h -5.09765 c 0.0586,-0.0234 0.10937,-0.0625 0.15234,-0.11328 0.11328,-0.13672 0.21875,-0.27735 0.32422,-0.41797 0.0781,-0.10938 0.0898,-0.24609 0.043,-0.36328 0.125,0 0.25391,-0.0625 0.32422,-0.17969 0.0937,-0.14453 0.1875,-0.29297 0.27344,-0.44531 0.0664,-0.1211 0.0664,-0.25781 0.004,-0.36719 0.12891,-0.0117 0.2461,-0.0859 0.30469,-0.20703 0.082,-0.15234 0.15625,-0.3125 0.22656,-0.47266 0.0586,-0.12109 0.0391,-0.25781 -0.0312,-0.36328 0.125,-0.0234 0.23438,-0.10937 0.28516,-0.23828 0.0664,-0.16016 0.125,-0.32031 0.18359,-0.48437 0.043,-0.125 0.0156,-0.26563 -0.0625,-0.36329 0.1211,-0.0352 0.22656,-0.125 0.26172,-0.2539 0.0469,-0.16406 0.0937,-0.33203 0.13672,-0.5 0.0391,-0.12891 -0.004,-0.26172 -0.0898,-0.35156 0.12109,-0.043 0.21484,-0.14844 0.24218,-0.27735 0.0352,-0.16406 0.0703,-0.33594 0.10157,-0.5039 0.0273,-0.13672 -0.0234,-0.26172 -0.11329,-0.34766 0.11329,-0.0508 0.20313,-0.15625 0.22266,-0.28906 0.0234,-0.17188 0.0469,-0.34375 0.0664,-0.51172 0.0156,-0.13281 -0.0391,-0.25781 -0.13672,-0.33985 0.10937,-0.0586 0.1875,-0.16796 0.19922,-0.30468 0.0117,-0.16797 0.0273,-0.34375 0.0352,-0.51563 0.008,-0.13281 -0.0625,-0.2539 -0.16015,-0.32422 0.10547,-0.0664 0.17968,-0.17968 0.18359,-0.32031 0,-0.0898 0.004,-0.17578 0.004,-0.26562 0,-0.082 0,-0.16407 0,-0.2461 0,-0.13281 -0.0781,-0.2539 -0.1836,-0.32031 0.10157,-0.0742 0.16797,-0.19531 0.16016,-0.32813 0,-0.004 0,-0.008 0,-0.0117 0.60547,-0.21875 1.03906,-0.79297 1.03906,-1.46875 0,-0.86329 -0.71094,-1.5625 -1.58203,-1.5625 h -5.44922 c 0.4961,-0.25391 0.83985,-0.76172 0.83985,-1.34766 0,-0.83203 -0.6875,-1.51172 -1.52735,-1.51172 -0.84375,0 -1.53125,0.67969 -1.53125,1.51172 0,0.58984 0.34375,1.09375 0.83985,1.34766 h -5.45313 c -0.875,0 -1.58203,0.70312 -1.58203,1.5625 0,0.64843 0.40234,1.20312 0.96875,1.4414 0,0.0156 0,0.0312 -0.004,0.0508 -0.008,0.13282 0.0547,0.25391 0.16016,0.32813 -0.10938,0.0664 -0.17969,0.1875 -0.18359,0.32031 0,0.082 0,0.16406 0,0.24609 0,0.0859 0,0.17579 0.004,0.26563 0.004,0.13672 0.0742,0.25391 0.1836,0.32031 -0.10547,0.0703 -0.16797,0.19141 -0.16016,0.32422 0.008,0.17578 0.0195,0.34766 0.0312,0.51563 0.0117,0.13281 0.0937,0.24609 0.20312,0.30859 -0.0977,0.0781 -0.15625,0.20312 -0.14062,0.33594 0.0234,0.17187 0.0469,0.33984 0.0703,0.51172 0.0195,0.13281 0.10547,0.23828 0.22266,0.28906 -0.0937,0.0859 -0.14063,0.21094 -0.11719,0.34765 0.0312,0.16797 0.0664,0.33985 0.10547,0.50391 0.0273,0.12891 0.12109,0.23438 0.24219,0.27734 -0.0898,0.0898 -0.125,0.22266 -0.0937,0.35157 0.043,0.16797 0.0937,0.33593 0.14062,0.5 0.0391,0.1289 0.14063,0.22265 0.26172,0.2539 -0.0781,0.0977 -0.10937,0.23438 -0.0625,0.36328 0.0586,0.16407 0.11719,0.32422 0.17969,0.48438 0.0547,0.12891 0.16015,0.21484 0.28515,0.23828 -0.0703,0.10547 -0.0859,0.24219 -0.0312,0.36328 0.0742,0.15625 0.14844,0.32031 0.22657,0.47266 0.0625,0.12109 0.17968,0.19531 0.30859,0.20703 -0.0625,0.10937 -0.0664,0.25391 0.004,0.36719 0.0859,0.14843 0.17578,0.30078 0.27343,0.44531 0.0742,0.11328 0.19532,0.17969 0.32422,0.17969 -0.0469,0.11718 -0.0352,0.2539 0.043,0.36328 0.10547,0.14062 0.21094,0.27734 0.32031,0.41797 0.0391,0.043 0.0859,0.0781 0.13282,0.10156 h -4.97266 c -0.34766,0 -0.625,0.27344 -0.625,0.61719 0,0.20703 0.10938,0.39062 0.26563,0.5039 l 1.68359,4.88672 c -0.0781,0.10938 -0.125,0.23828 -0.125,0.38672 0,0.36328 0.29687,0.66016 0.66406,0.66016 h 6.30078 v 11.52734 h 1.25782 v -11.53125 h 6.3789 c 0.36719,0 0.66797,-0.29687 0.66797,-0.66016 0,-0.17578 -0.0703,-0.33593 -0.17969,-0.45312 l 1.65625,-4.80078 c 0.17578,-0.10547 0.30078,-0.30078 0.30078,-0.52344 0,-0.33984 -0.27734,-0.61328 -0.625,-0.61328 z m -4.33593,5.73437 1.55078,-4.5039 h 2.15625 l -1.55469,4.5039 z m -2.875,0 1.55078,-4.5039 h 1.95312 l -1.55078,4.5039 z m -2.29688,0 -1.41797,-4.11328 c 0.0703,0.0156 0.14844,0.0117 0.21485,-0.0156 -0.004,0.125 0.0508,0.25 0.16797,0.32812 0.14062,0.10157 0.29296,0.19532 0.4414,0.28516 0.0664,0.0391 0.13281,0.0547 0.19922,0.0547 0.0234,0 0.0508,-0.004 0.0742,-0.008 0.0234,0.004 0.0391,0.004 0.0586,0.004 0.0547,0 0.10938,-0.0117 0.16016,-0.0352 0.0547,0.11329 0.10547,0.21875 0.16016,0.3125 0,0 0,0.004 0.004,0.004 v 3.18359 z m -2.8789,0 -1.55079,-4.5039 h 1.95313 l 1.55078,4.5039 z m -3.07813,0 -1.55469,-4.5039 h 2.15625 l 1.55078,4.5039 z m 4.76953,-5.89062 c -0.0664,-0.14453 -0.14062,-0.29297 -0.20703,-0.44531 -0.0508,-0.11719 -0.15625,-0.19532 -0.27344,-0.21875 0.0664,-0.10157 0.0859,-0.23047 0.043,-0.35157 -0.0547,-0.14843 -0.10937,-0.30468 -0.16797,-0.46484 -0.043,-0.12109 -0.14062,-0.20703 -0.25781,-0.24219 0.0781,-0.0937 0.10938,-0.22265 0.0703,-0.34375 -0.0508,-0.15625 -0.0937,-0.3164 -0.14062,-0.47656 -0.0352,-0.125 -0.12891,-0.21875 -0.2461,-0.25781 0.082,-0.0898 0.1211,-0.21875 0.0859,-0.34766 -0.0391,-0.15625 -0.0742,-0.32031 -0.10937,-0.48047 -0.0273,-0.1289 -0.11719,-0.22656 -0.23047,-0.27343 0.0859,-0.0859 0.13281,-0.21094 0.10547,-0.33594 -0.0352,-0.16406 -0.0664,-0.32813 -0.0937,-0.49219 -0.0234,-0.12891 -0.10938,-0.23047 -0.22266,-0.27734 0.0937,-0.0859 0.14063,-0.21094 0.12109,-0.33985 -0.0234,-0.16015 -0.0508,-0.32812 -0.0781,-0.49609 -0.0195,-0.12891 -0.10156,-0.23438 -0.20703,-0.28516 0.0898,-0.0781 0.14453,-0.20312 0.125,-0.33203 -0.0195,-0.16797 -0.0391,-0.33203 -0.0586,-0.5 -0.0156,-0.1289 -0.0977,-0.23828 -0.20312,-0.29687 0.0937,-0.0781 0.15234,-0.19922 0.14062,-0.32813 -0.0156,-0.16406 -0.0352,-0.33203 -0.0469,-0.5 -0.0117,-0.1289 -0.0859,-0.23828 -0.19141,-0.29687 0.0977,-0.0742 0.15625,-0.19141 0.14453,-0.32813 -0.0117,-0.16797 -0.0195,-0.33594 -0.0312,-0.49609 -0.008,-0.12891 -0.0781,-0.2461 -0.1875,-0.3086 0.0859,-0.0586 0.14454,-0.15234 0.15625,-0.26171 h 1.42969 c 0.0156,0.11718 0.082,0.21875 0.17969,0.27734 -0.10156,0.0703 -0.16406,0.19531 -0.16016,0.32422 0.008,0.16797 0.0156,0.33594 0.0195,0.5039 0.008,0.13672 0.0781,0.25 0.1875,0.3125 -0.10156,0.0742 -0.16406,0.19141 -0.16015,0.32422 0.008,0.17188 0.0156,0.34375 0.0273,0.50782 0.008,0.13281 0.082,0.24218 0.19141,0.30859 -0.0977,0.0742 -0.16406,0.19531 -0.15625,0.32422 0.0117,0.16797 0.0195,0.33984 0.0312,0.50781 0.008,0.13281 0.0898,0.24219 0.19531,0.30469 -0.0977,0.0742 -0.15625,0.19531 -0.14844,0.33203 0.0117,0.16797 0.0273,0.33984 0.0391,0.50391 0.0117,0.13281 0.0859,0.24609 0.19921,0.30468 -0.10156,0.0742 -0.15625,0.19922 -0.14453,0.32813 0.0156,0.16797 0.0312,0.34375 0.0469,0.50781 0.0117,0.13281 0.0937,0.24219 0.20312,0.29688 -0.0937,0.0781 -0.15625,0.20312 -0.14062,0.33593 0.0234,0.16797 0.0391,0.33985 0.0586,0.50391 0.0156,0.13672 0.0937,0.24219 0.20703,0.29687 -0.0937,0.0781 -0.14843,0.20313 -0.1289,0.33594 0.0234,0.17578 0.043,0.34375 0.0664,0.50781 0.0195,0.13282 0.10547,0.23829 0.21875,0.28907 -0.0937,0.0859 -0.14062,0.21093 -0.12109,0.34375 0.0273,0.17187 0.0547,0.33984 0.082,0.50781 0.0234,0.13281 0.10938,0.23437 0.22656,0.28516 -0.0898,0.0859 -0.14062,0.21484 -0.11328,0.34375 0.0156,0.0742 0.0312,0.14453 0.0469,0.21484 h -0.38672 c 0,-0.0547 -0.0117,-0.10547 -0.0352,-0.15625 z m 5.78516,-9.52344 c -0.10547,0.0625 -0.17578,0.17578 -0.1836,0.3086 -0.008,0.16406 -0.0195,0.33203 -0.0352,0.49609 -0.008,0.13281 0.0547,0.25391 0.14844,0.32812 -0.10547,0.0586 -0.1836,0.16797 -0.19532,0.29688 -0.0117,0.16797 -0.0273,0.33594 -0.043,0.5 -0.0117,0.12891 0.043,0.25 0.14063,0.32812 -0.11328,0.0586 -0.19141,0.16797 -0.20313,0.29688 -0.0195,0.16406 -0.0391,0.33203 -0.0586,0.5 -0.0156,0.12891 0.0352,0.25 0.125,0.33203 -0.10937,0.0547 -0.19531,0.15625 -0.21094,0.28516 -0.0234,0.16797 -0.0469,0.33593 -0.0742,0.49609 -0.0195,0.12891 0.0273,0.25 0.11719,0.33984 -0.10937,0.0508 -0.19531,0.14844 -0.21875,0.27735 -0.0312,0.16406 -0.0625,0.32812 -0.0937,0.49219 -0.0234,0.1289 0.0195,0.2539 0.10547,0.33593 -0.11719,0.043 -0.20312,0.14063 -0.23047,0.26953 -0.0352,0.16797 -0.0781,0.32813 -0.11328,0.48438 -0.0312,0.125 0.008,0.25781 0.0898,0.34766 -0.11718,0.0391 -0.21093,0.13281 -0.24609,0.25781 -0.0469,0.16015 -0.0937,0.32031 -0.14062,0.47656 -0.0352,0.125 -0.008,0.25 0.0664,0.34375 -0.11328,0.0312 -0.21484,0.12109 -0.25781,0.24219 -0.0547,0.16015 -0.10938,0.3164 -0.16406,0.46484 -0.0508,0.1211 -0.0273,0.25 0.043,0.35156 -0.1211,0.0234 -0.22266,0.10157 -0.27344,0.21875 -0.0703,0.15235 -0.13672,0.30079 -0.20703,0.44532 -0.0273,0.0547 -0.0391,0.10937 -0.0391,0.16406 h -0.39062 c 0.0156,-0.0742 0.0312,-0.14844 0.043,-0.22656 0.0234,-0.12891 -0.0195,-0.25782 -0.10938,-0.34375 0.11328,-0.0469 0.20703,-0.15235 0.22657,-0.28516 0.0273,-0.16797 0.0547,-0.33594 0.082,-0.50781 0.0195,-0.13281 -0.0312,-0.25781 -0.1211,-0.34375 0.11328,-0.0508 0.19532,-0.16016 0.21485,-0.28906 0.0273,-0.16407 0.0469,-0.33204 0.0703,-0.50782 0.0156,-0.13281 -0.0352,-0.2539 -0.13281,-0.33593 0.11328,-0.0547 0.19531,-0.16407 0.21093,-0.29688 0.0195,-0.16406 0.0352,-0.33203 0.0547,-0.50391 0.0156,-0.13281 -0.043,-0.25781 -0.13672,-0.33593 0.10938,-0.0586 0.1875,-0.16797 0.20313,-0.29688 0.0156,-0.16406 0.0312,-0.33984 0.0469,-0.50781 0.0117,-0.13281 -0.0469,-0.25391 -0.14453,-0.32813 0.11328,-0.0586 0.1875,-0.17187 0.19922,-0.30468 0.0117,-0.16407 0.0273,-0.33594 0.0391,-0.50391 0.008,-0.13672 -0.0508,-0.25781 -0.15234,-0.33203 0.10937,-0.0586 0.1875,-0.17188 0.19531,-0.30469 0.0117,-0.16797 0.0234,-0.33984 0.0312,-0.50781 0.008,-0.13281 -0.0508,-0.25 -0.15234,-0.32813 0.10547,-0.0625 0.17969,-0.17187 0.1914,-0.30468 0.008,-0.16407 0.0195,-0.33594 0.0273,-0.50782 0.008,-0.13281 -0.0586,-0.25 -0.16016,-0.32421 0.10547,-0.0625 0.1836,-0.17579 0.1875,-0.3125 0.008,-0.16797 0.0156,-0.33985 0.0195,-0.50391 0.004,-0.13281 -0.0586,-0.25391 -0.16406,-0.32422 0.0977,-0.0586 0.16406,-0.15234 0.17969,-0.26953 h 1.43359 c 0.0234,0.10937 0.0781,0.19922 0.16016,0.25781 z m -4.65625,9.32031 c -0.0234,-0.1289 -0.10938,-0.22656 -0.22266,-0.27343 0.0859,-0.082 0.13281,-0.20703 0.10938,-0.33985 -0.0273,-0.16015 -0.0547,-0.32422 -0.0781,-0.49218 -0.0195,-0.12891 -0.10547,-0.23438 -0.21484,-0.28907 0.0898,-0.082 0.14062,-0.20312 0.12109,-0.33203 -0.0234,-0.16015 -0.043,-0.32812 -0.0664,-0.5 -0.0156,-0.1289 -0.0977,-0.23437 -0.21094,-0.28906 0.0977,-0.0781 0.14844,-0.20313 0.13672,-0.33203 -0.0195,-0.16406 -0.0352,-0.32813 -0.0547,-0.4961 -0.0156,-0.13281 -0.0937,-0.24218 -0.20313,-0.29687 0.0937,-0.0781 0.14844,-0.19922 0.13672,-0.32813 -0.0156,-0.16406 -0.0312,-0.33593 -0.0469,-0.5039 -0.0117,-0.12891 -0.0898,-0.23828 -0.19922,-0.29688 0.0977,-0.0742 0.15625,-0.19922 0.14453,-0.32812 -0.0117,-0.16406 -0.0273,-0.33203 -0.0391,-0.50391 -0.008,-0.1289 -0.0898,-0.24219 -0.19531,-0.30078 0.0977,-0.0742 0.16015,-0.19531 0.15234,-0.32422 -0.0156,-0.16797 -0.0273,-0.33594 -0.0352,-0.5039 -0.008,-0.12891 -0.082,-0.24219 -0.1875,-0.3086 0.0977,-0.0742 0.15625,-0.1914 0.15235,-0.32422 -0.008,-0.16406 -0.0195,-0.33203 -0.0273,-0.5039 -0.008,-0.13282 -0.0781,-0.24219 -0.1875,-0.30469 0.10157,-0.0703 0.16407,-0.19141 0.16016,-0.32422 -0.008,-0.16797 -0.0156,-0.33594 -0.0195,-0.5 -0.004,-0.13281 -0.0781,-0.24609 -0.1836,-0.3125 0.0898,-0.0586 0.14844,-0.15625 0.16016,-0.26172 h 1.01172 v 9.92969 h -0.0391 c -0.0234,-0.11719 -0.0469,-0.23828 -0.0742,-0.35938 z m 2.47265,-9.3164 c -0.10937,0.0625 -0.17968,0.17969 -0.18359,0.3125 -0.008,0.16406 -0.0117,0.33594 -0.0195,0.5 -0.004,0.13672 0.0547,0.2539 0.15625,0.32422 -0.10547,0.0625 -0.17969,0.17578 -0.18359,0.30468 -0.008,0.17188 -0.0156,0.33985 -0.0312,0.50391 -0.008,0.12891 0.0586,0.25 0.15625,0.32422 -0.10547,0.0664 -0.1836,0.17578 -0.19141,0.30859 -0.0117,0.16797 -0.0195,0.33594 -0.0312,0.50391 -0.008,0.12891 0.0508,0.25 0.15234,0.32422 -0.10937,0.0586 -0.18359,0.16797 -0.19531,0.30078 -0.0117,0.17187 -0.0234,0.33984 -0.0391,0.50391 -0.0117,0.1289 0.0469,0.2539 0.14062,0.32812 -0.10547,0.0586 -0.18359,0.16797 -0.19531,0.29688 -0.0156,0.16796 -0.0352,0.33984 -0.0508,0.5039 -0.0117,0.12891 0.0469,0.25 0.14062,0.32813 -0.10937,0.0547 -0.1914,0.16406 -0.20312,0.29687 -0.0156,0.16797 -0.0352,0.33594 -0.0547,0.4961 -0.0156,0.1289 0.0391,0.2539 0.13281,0.33203 -0.10937,0.0547 -0.1875,0.16015 -0.20703,0.28906 -0.0195,0.16797 -0.0469,0.33984 -0.0703,0.5 -0.0195,0.12891 0.0312,0.25 0.125,0.33203 -0.11328,0.0508 -0.19531,0.16016 -0.21484,0.28906 -0.0273,0.16797 -0.0508,0.33203 -0.0781,0.49219 -0.0234,0.13281 0.0234,0.25391 0.10938,0.33984 -0.10938,0.0469 -0.19922,0.14844 -0.22657,0.27344 -0.0117,0.0664 -0.0273,0.12891 -0.0391,0.19922 v -9.76172 h 0.94141 c 0.0156,0.10156 0.0742,0.19531 0.16015,0.25391 z m -1.10156,15.41015 V 167.875 c 0.0273,-0.0586 0.0586,-0.11719 0.0859,-0.17969 0.0547,0.0234 0.10937,0.0352 0.16406,0.0352 0.0195,0 0.0352,0 0.0547,-0.004 0.0234,0.004 0.0508,0.008 0.0781,0.008 0.0664,0 0.13672,-0.0195 0.19532,-0.0547 0.15234,-0.0898 0.30078,-0.1875 0.44531,-0.28516 0.11719,-0.0742 0.17187,-0.20312 0.16797,-0.32812 0.0937,0.0352 0.20703,0.0312 0.30078,-0.0156 l -1.43359,4.15234 z m 5.29297,-13.98046 c -0.0117,0.16796 -0.0234,0.33203 -0.0352,0.49609 -0.0117,0.12891 0.0508,0.24609 0.14063,0.32031 -0.10547,0.0586 -0.1875,0.16406 -0.20313,0.29297 -0.0195,0.16406 -0.0391,0.32813 -0.0625,0.49219 -0.0195,0.1289 0.0273,0.25 0.11719,0.32812 -0.10937,0.0508 -0.1914,0.14844 -0.21875,0.27735 -0.0312,0.16406 -0.0625,0.32812 -0.0977,0.48437 -0.0273,0.125 0.0117,0.25 0.0937,0.33985 -0.11329,0.043 -0.20313,0.13281 -0.23829,0.25781 -0.043,0.16015 -0.0859,0.3164 -0.13281,0.47656 -0.0352,0.12109 -0.008,0.25 0.0664,0.34375 -0.11328,0.0312 -0.21485,0.11719 -0.25781,0.23828 -0.0547,0.15625 -0.10938,0.3125 -0.17188,0.46094 -0.0469,0.11719 -0.0273,0.24609 0.0391,0.34766 -0.12109,0.0273 -0.22265,0.10156 -0.28125,0.21875 -0.0664,0.14843 -0.13672,0.29687 -0.21093,0.4375 -0.0625,0.11718 -0.0547,0.24609 0.004,0.35156 -0.12109,0.0117 -0.23047,0.0781 -0.30078,0.1875 -0.082,0.14062 -0.16406,0.28515 -0.25391,0.41797 -0.0664,0.10547 -0.0742,0.23437 -0.0312,0.34375 -0.11718,0 -0.23828,0.0547 -0.3125,0.15625 -0.0937,0.13281 -0.19531,0.26172 -0.29687,0.38672 -0.082,0.0977 -0.10547,0.22656 -0.0742,0.33984 -0.11719,-0.0156 -0.23828,0.0273 -0.32812,0.125 -0.0391,0.043 -0.0781,0.0859 -0.11719,0.125 h -0.19531 c 0.0469,-0.10156 0.0937,-0.20703 0.13671,-0.3125 0.0586,-0.125 0.0391,-0.25781 -0.0352,-0.36328 0.125,-0.0234 0.23437,-0.10938 0.28125,-0.24219 0.0625,-0.15625 0.12109,-0.32031 0.17578,-0.48437 0.043,-0.125 0.0156,-0.26563 -0.0625,-0.35938 0.12109,-0.0352 0.22266,-0.125 0.26172,-0.25391 0.0469,-0.16015 0.0937,-0.32421 0.14453,-0.49609 0.0352,-0.12891 0,-0.26172 -0.0898,-0.35156 0.12109,-0.0391 0.21484,-0.13672 0.24609,-0.27344 0.0391,-0.16406 0.082,-0.32812 0.11719,-0.49609 0.0273,-0.12891 -0.0156,-0.26172 -0.10547,-0.35157 0.11719,-0.0469 0.20703,-0.14843 0.23437,-0.27734 0.0312,-0.16406 0.0625,-0.33594 0.0977,-0.50391 0.0234,-0.1289 -0.0273,-0.25781 -0.11719,-0.33984 0.11719,-0.0508 0.20313,-0.16016 0.22266,-0.28906 0.0273,-0.16406 0.0508,-0.33203 0.0742,-0.50391 0.0195,-0.13672 -0.0312,-0.26172 -0.125,-0.33984 0.10937,-0.0547 0.19531,-0.16016 0.21484,-0.29297 0.0195,-0.16797 0.0391,-0.33984 0.0586,-0.50781 0.0156,-0.13282 -0.0391,-0.25391 -0.14062,-0.33203 0.11328,-0.0625 0.19141,-0.17188 0.20312,-0.30079 0.0156,-0.16796 0.0312,-0.33593 0.043,-0.50781 0.0117,-0.13281 -0.0469,-0.2539 -0.14453,-0.32812 0.10938,-0.0586 0.1836,-0.17188 0.19531,-0.30469 0.0117,-0.17188 0.0234,-0.34375 0.0312,-0.51172 0.008,-0.13281 -0.0586,-0.25781 -0.16015,-0.32812 0.0937,-0.0586 0.16797,-0.15625 0.18359,-0.26954 h 1.40235 c 0.0234,0.10938 0.0859,0.20704 0.17968,0.26172 -0.0977,0.0703 -0.16015,0.1875 -0.15625,0.31641 0,0.0781 0,0.16016 0,0.23828 0,0.0859 0,0.16797 0,0.25391 0,0.13281 0.0625,0.24609 0.16016,0.3164 -0.0898,0.0508 -0.16016,0.16016 -0.16797,0.28907 z m -8.875,8.1289 c -0.0898,-0.0977 -0.21094,-0.13672 -0.33203,-0.125 0.0312,-0.11328 0.0117,-0.23828 -0.0703,-0.33984 -0.10547,-0.125 -0.20313,-0.25391 -0.29688,-0.38672 -0.0781,-0.10156 -0.19531,-0.15625 -0.3164,-0.15625 0.0469,-0.10938 0.0391,-0.23828 -0.0312,-0.34375 -0.0859,-0.13672 -0.17188,-0.27734 -0.25391,-0.41797 -0.0625,-0.10937 -0.17578,-0.17578 -0.29688,-0.1875 0.0547,-0.10547 0.0625,-0.23437 0.004,-0.35156 -0.0703,-0.14453 -0.14453,-0.28906 -0.21484,-0.4375 -0.0508,-0.11719 -0.15625,-0.19141 -0.27735,-0.21875 0.0664,-0.0977 0.082,-0.22656 0.0352,-0.34766 -0.0586,-0.14844 -0.11719,-0.30469 -0.16797,-0.46094 -0.0469,-0.12109 -0.14453,-0.20703 -0.26172,-0.23828 0.0781,-0.0937 0.10547,-0.21875 0.0703,-0.34375 -0.0469,-0.15625 -0.0937,-0.3164 -0.13671,-0.47656 -0.0312,-0.125 -0.1211,-0.21875 -0.23829,-0.25781 0.0859,-0.0898 0.125,-0.21485 0.0977,-0.33985 -0.0391,-0.15625 -0.0703,-0.32031 -0.10156,-0.48437 -0.0234,-0.125 -0.10547,-0.22656 -0.21875,-0.27734 0.0898,-0.082 0.14062,-0.20313 0.12109,-0.32813 -0.0234,-0.16406 -0.043,-0.32812 -0.0625,-0.49219 -0.0195,-0.1289 -0.0977,-0.23437 -0.20312,-0.29297 0.0937,-0.0742 0.14843,-0.19531 0.13672,-0.32031 -0.0117,-0.16406 -0.0234,-0.32812 -0.0312,-0.49609 -0.008,-0.12891 -0.0781,-0.23828 -0.1836,-0.30078 0.10156,-0.0703 0.16406,-0.1836 0.16406,-0.31641 0,-0.0859 0,-0.17187 0,-0.25391 0,-0.0781 0,-0.16015 0,-0.23828 0,-0.1289 -0.0625,-0.24609 -0.16015,-0.3164 0.0977,-0.0586 0.16406,-0.15625 0.17969,-0.26953 h 1.41015 c 0.0156,0.12109 0.082,0.22265 0.1836,0.28125 -0.10547,0.0742 -0.16797,0.19531 -0.16016,0.32812 0.008,0.16797 0.0195,0.33594 0.0312,0.51172 0.008,0.13281 0.0859,0.24219 0.19531,0.30469 -0.10156,0.0742 -0.16015,0.19531 -0.14844,0.32812 0.0156,0.17188 0.0273,0.34375 0.043,0.50781 0.0156,0.13282 0.0937,0.24219 0.20313,0.30079 -0.0937,0.0781 -0.15235,0.20312 -0.13672,0.33203 0.0195,0.16797 0.0391,0.33984 0.0586,0.50781 0.0156,0.13281 0.0977,0.23828 0.21485,0.29297 -0.0977,0.082 -0.14844,0.20703 -0.12891,0.33984 0.0234,0.16797 0.0547,0.33985 0.0781,0.50391 0.0195,0.13281 0.10546,0.23828 0.22265,0.28906 -0.0937,0.0859 -0.14062,0.21094 -0.11719,0.33984 0.0312,0.16797 0.0625,0.33985 0.0937,0.50391 0.0312,0.12891 0.1211,0.23047 0.23438,0.27734 -0.0859,0.0859 -0.12891,0.21875 -0.10156,0.35157 0.0352,0.16797 0.0742,0.33593 0.11328,0.49609 0.0352,0.13281 0.1289,0.23047 0.24609,0.27344 -0.082,0.0937 -0.12109,0.22265 -0.0859,0.35156 0.0469,0.17188 0.0937,0.33594 0.14454,0.49609 0.0391,0.12891 0.13671,0.21875 0.26171,0.25391 -0.082,0.0977 -0.10937,0.23438 -0.0664,0.35938 0.0586,0.16406 0.11719,0.32812 0.17578,0.48437 0.0469,0.12891 0.16016,0.21484 0.28125,0.24219 -0.0703,0.10156 -0.0898,0.23828 -0.0352,0.36328 0.043,0.10156 0.0937,0.20312 0.13672,0.30078 h -0.1914 c -0.0352,-0.0273 -0.0742,-0.0664 -0.10938,-0.10547 z m 0,0"
       fill-opacity="1"
       fill-rule="nonzero"
       id="path211" />
  </g>
  <path
     fill="#8cb242"
     d="m 110.802,41.154368 c -10.77342,-5.488281 -10.28123,-24.367187 1.98437,-30.464843 18.92969,0.04687 20.8125,29.5 1.4336,30.554687 -0.69922,-12.8125 -2.71094,-12.714844 -3.41797,-0.08984 z m 0,0"
     fill-opacity="1"
     fill-rule="nonzero"
     id="path215" />
  <path
     fill="#507f09"
     d="M 112.78637,10.689525 C 100.41921,17.587962 102.65748,32.084056 110.802,41.154368 92.348894,37.2989 94.469988,9.5645248 112.78637,10.689525 Z m 0,0"
     fill-opacity="1"
     fill-rule="nonzero"
     id="path217" />
  <path
     fill="#60462a"
     d="m 110.35278,40.275462 c 1.97266,-21.601562 4.00391,-3.253906 4.59375,7.511719 0.17578,2.9375 -2.16797,1.265625 -3.35547,1.570313 -4.02734,0.386718 -0.61328,-6.695313 -1.23828,-9.082032 z m 0,0"
     fill-opacity="1"
     fill-rule="nonzero"
     id="path219" />
  <g
     fill="#033a84"
     fill-opacity="1"
     id="g227"
     transform="translate(-135.90893,-144.19719)">
    <g
       transform="translate(137.11205,185.19719)"
       id="g225">
      <g
         id="g223">
        <path
           d="m 34.046875,-18.265625 c 0,5.605469 -1.71875,10.109375 -5.15625,13.515625 C 25.710938,-1.582031 21.539062,0 16.375,0 H 3.359375 v -33.59375 c 0,-0.03125 -0.125,-0.519531 -0.375,-1.46875 -0.25,-0.957031 -0.398437,-1.484375 -0.4375,-1.578125 h 13.875 c 5.507813,0 9.820313,1.679687 12.9375,5.03125 3.125,3.355469 4.6875,7.804687 4.6875,13.34375 z m -7.40625,0.1875 c 0,-2.394531 -0.339844,-4.578125 -1.015625,-6.546875 -0.667969,-1.96875 -1.828125,-3.632812 -3.484375,-5 C 20.492188,-31 18.4375,-31.6875 15.96875,-31.6875 H 10.265625 V -4.953125 H 16.0625 c 1.84375,0 3.460938,-0.359375 4.859375,-1.078125 1.40625,-0.71875 2.507813,-1.703125 3.3125,-2.953125 0.800781,-1.25 1.398437,-2.632813 1.796875,-4.15625 0.40625,-1.519531 0.609375,-3.164063 0.609375,-4.9375 z m 0,0"
           id="path221" />
      </g>
    </g>
  </g>
  <g
     fill="#033a84"
     fill-opacity="1"
     id="g233"
     transform="translate(-135.90893,-144.19719)">
    <g
       transform="translate(172.09252,185.19719)"
       id="g231">
      <g
         id="g229" />
    </g>
  </g>
  <g
     fill="#033a84"
     fill-opacity="1"
     id="g239"
     transform="translate(-135.90893,-144.19719)">
    <g
       transform="translate(183.60418,185.19719)"
       id="g237">
      <g
         id="g235" />
    </g>
  </g>
  <g
     fill="#033a84"
     fill-opacity="1"
     id="g247"
     transform="translate(-135.90893,-144.19719)">
    <g
       transform="translate(195.10814,185.19719)"
       id="g245">
      <g
         id="g243">
        <path
           d="M 33.4375,0.046875 H 29.890625 L 28.1875,-3.75 c -1.667969,1.53125 -3.339844,2.632812 -5.015625,3.296875 -1.667969,0.664063 -3.636719,1 -5.90625,1 C 12.066406,0.546875 8.0625,-1.191406 5.25,-4.671875 2.445312,-8.160156 1.046875,-12.59375 1.046875,-17.96875 c 0,-5.84375 1.617187,-10.515625 4.859375,-14.015625 C 9.144531,-35.492188 13.632812,-37.25 19.375,-37.25 c 2.269531,0 4.640625,0.335938 7.109375,1 2.46875,0.667969 4.382813,1.652344 5.75,2.953125 l -3.65625,4.109375 c -1.761719,-1.300781 -3.234375,-2.1875 -4.421875,-2.65625 -1.1875,-0.46875 -2.78125,-0.703125 -4.78125,-0.703125 -2.636719,0 -4.8125,0.695313 -6.53125,2.078125 -1.71875,1.386719 -2.90625,3.089844 -3.5625,5.109375 -0.648438,2.023437 -0.96875,4.335937 -0.96875,6.9375 0,1.636719 0.191406,3.246094 0.578125,4.828125 0.382813,1.585938 0.953125,3.09375 1.703125,4.53125 0.75,1.4375 1.804688,2.601562 3.171875,3.484375 1.363281,0.886719 2.914063,1.328125 4.65625,1.328125 2.375,0 4.285156,-0.695312 5.734375,-2.09375 1.445312,-1.40625 2.171875,-3.296875 2.171875,-5.671875 V -15.125 H 18.71875 l 0.65625,-4.40625 h 13.921875 c -0.07422,4.074219 -0.109375,7.148438 -0.109375,9.21875 0,4.042969 0.08203,7.496094 0.25,10.359375 z m 0,0"
           id="path241" />
      </g>
    </g>
  </g>
  <g
     fill="#033a84"
     fill-opacity="1"
     id="g253"
     transform="translate(-135.90893,-144.19719)">
    <g
       transform="translate(230.48704,185.19719)"
       id="g251">
      <g
         id="g249" />
    </g>
  </g>
</svg>
